<?xml version="1.0" standalone="no"?>
<!DOCTYPE svg PUBLIC "-//W3C//DTD SVG 20010904//EN"
 "http://www.w3.org/TR/2001/REC-SVG-20010904/DTD/svg10.dtd">
<svg version="1.0" xmlns="http://www.w3.org/2000/svg"
 width="500.000000pt" height="500.000000pt" viewBox="0 0 500.000000 500.000000"
 preserveAspectRatio="xMidYMid meet">

<g transform="translate(0.000000,500.000000) scale(0.100000,-0.100000)"
fill="#000000" stroke="none">
<path d="M3860 4046 l0 -45 53 -3 52 -3 3 -147 3 -148 59 0 60 0 0 150 0 150
50 0 50 0 0 45 0 45 -165 0 -165 0 0 -44z"/>
<path d="M4230 3895 l0 -195 60 0 60 0 1 98 1 97 32 -97 31 -98 51 0 51 0 31
98 30 97 1 -97 1 -98 60 0 60 0 0 195 0 195 -74 0 -74 0 -38 -107 c-20 -60
-40 -112 -44 -116 -4 -4 -17 20 -30 55 -12 35 -31 87 -42 116 l-19 52 -75 0
-74 0 0 -195z"/>
<path d="M1110 2491 l0 -1361 1390 0 1390 0 0 513 c0 281 3 894 7 1361 5 637
3 848 -5 845 -10 -4 -302 -289 -1144 -1118 l-248 -244 -375 369 c-207 203
-519 510 -695 683 l-320 313 0 -1361z"/>
</g>
</svg>
